<svg width="64" height="64" version="1.1" viewBox="0 0 64 64" xmlns="http://www.w3.org/2000/svg">
    <path fill="#e6e6df" d="m27.011 0.18-0.59964 0.48989-2.1179-0.061231-1.1163 0.3242-0.94412 0.61237-0.64429 0.68441-1.5374-0.64119-0.69533 0.061231-1.7096-0.24855-0.79739 0.10087-1.1546-0.057635-0.96963-0.061231-1.4672-0.77447-1.4481-0.079251-0.39551 0.70602-1.2312 0.043231-1.2376 0.03602-1.212 0.032423-0.34447 0.27737-2.5006-0.58355-0.97777 0.36777-1.3453-0.26734-1.1743 0.24054 0.48643 1.1143-0.076562 0.25215 0.3062 0.78527-0.31257 0.59436-0.28706-0.075626-0.16584 1.5525 0.070162 0.79248-0.31257 0.30258-0.31257 0.71323 1.3779 0.97979 0.18498 0.23414 0.46568 0.76726 0.2105 0.75285 0.25518 0.77086 0.39551 0.79248-0.59964 0.02882-0.32534 0.80328 0.53585 1.1707-0.56136-0.1477-0.70808 1.268-0.32534 0.77807 0.79739 1.0374-0.27432 0.39984 0.34447 1.1131-0.62516 0.59076-0.64429-0.21973-0.63791 1.268 0.98876 0.93296 0.33171 0.96538-0.50395 0.72764 0.72722 0.43586 0.44654 0.35301 0.37637 0.27737 0.99514 0.93657 0.65705 0.78887 0.15948 0.64119 0.057422 0.30258-1.5055 0.3278h-0.98239l-0.44654 0.54393-0.45292 0.44667-0.00656 1.005-0.44016 0.77807-0.7336 0.14048 0.73329 1.1779 0.25518 1.585 0.38275 1.3004 0.095702 1.9164-0.025481 1.1275 0.19776 0.88974-0.2169 1.3436 0.032 0.84291-0.20413 0.39624-0.38275 0.62678-0.11484-0.1657-0.051041 0.52952-0.1467 0.55474-0.39551 0.9978-0.29983 0.075662 1.0653 1.4445 0.29983 1.4193 1.2886 0.89334 0.26155 0.61237-0.64429-0.4935-0.38275 1.1491-0.13394 1.3976-0.58688 0.97979 0.26792 1.0662-0.44016 0.81769 0.032 0.98699 0.48482 0.4971 0.34447 0.25936 0.96325 0.95097 0.43378 0.77087 0.46568 0.76366 0.44016 0.77086 0.23604 0.71683-0.96325-0.15488-0.36361 1.005-0.7017 0.23054 0.12758 0.90414-0.40189 0.72764-0.17862 0.28097-0.2169 0.69522-0.25303 0.78331 0.33458 0.78412 1.7502-0.21112 1.1792 0.4952 0.36999-0.07926 1.2503-0.34941 1.3715-0.23414 1.161-0.41785 1.1227-0.77087 1.6394 1.3004 0.47843 0.25576 1.397-0.03242 1.5437 0.0144 0.84205-0.44307 1.2376 0.12606 1.3779 0.11888 1.1355 0.59075 1.8627 0.09364 1.1355-0.0182 1.6012 0.07926 1.9648 0.09366 0.44016-0.34941 1.2439-0.06124 1.3269-0.12606 1.295-0.06844 0.71446-0.10086 0.0064 0.0038 0.95049 0.51872 0.4593 0.1477 2.2008-0.1441 0.7655-0.11528 0.95049-0.61237 1.3715 0.02164 1.4034 0.05042 1.48 0.1477 1.0079-0.0144 1.0462-0.08284 0.92497-0.20893 1.2057 0.07204 1.11 0.0144 1.11-0.1585 1.3205 0.18012 2.1306 0.38903 0.66343 0.03602 1.7351 0.41425 0.79739-0.45027 2.373 0.80328 1.0845-0.23054 0.96963-0.46108 0.79101 0.05764 2.1151 0.26786 0.61661-1.3924-1.1689-0.72698 0.0128-0.14048-0.04464-0.61957-0.17222-0.74925 0.3062-0.47909 0.38913-0.38903 0.23604-0.54393 0.35723-0.68081 0.75912-0.6556-0.0893-0.6736 0.22327-0.42866-0.51671-0.94737-0.46568-1.0482 0.66343-0.4899-0.55499-1.7435 0.14672 0.28457 0.86756-0.55113-0.17862-0.57635-0.12758-0.58715-0.31897-0.6592-0.35085-1.2103 0.82291-0.08642-0.36999-0.90414 0.24878-0.1837-0.58688-0.95097-0.68257-0.70963-0.52309-0.59796-0.7336-0.75286 0.60602-0.71323-0.89946-1.1275-0.43378-0.36382-0.05742-1.077-0.0957-0.84291 0.71446-0.88974 0.46568-0.52952-0.19776-0.87172-0.08292-0.652-0.3062-1.1023 0.47205-0.60516-0.80377-1.4769 0.22327-0.45748 0.60602-0.10088 0.89946-0.05764 0.17862-0.79969 0.3062-0.55473-0.032-1.6138 0.63791-0.1369 0.80377 0.0038 0.63791-0.13688-0.47206-0.9906-0.1212-0.51511-0.38275-0.87893 0.38913-0.8357 0.4593-1.1491-0.59326-1.4121 0.15948-0.68081 0.29983-0.59076v-0.90058l-0.05742-0.58355-0.96325-1.2932-0.64429-0.98339-0.0893-1.2932-0.07656-0.28817 0.17862-0.62318 0.48481-0.62317 0.28706-1.5201 0.48482 0.15129 0.0064-0.84291-0.22964-1.3652 0.20413-0.60157-0.10206-0.64479-0.15308-0.70967-0.21691-0.77447 0.04464-0.70242 0.06378-0.70603 0.0128-0.72043-0.12758-0.68081 0.14672-0.48629-0.68263-1.286-0.51033-0.23414-0.3955-0.14048-0.72084-0.45748 0.13398-0.53312 0.20414-0.47189 0.33169-0.57646-0.31247-0.67361 0.50596-0.34816-0.05954-0.59914-0.37573-0.45532-1.6334-0.052656-1.1929 1.0194-1.5118 0.11527-0.96337 0.32059-2.1689-0.27737h-0.84203l-0.9186-0.093742-0.88032 0.068443-2.003-0.77447-1.9201-0.20893-1.9393-0.079251-1.1546-0.25215-0.53585 1.023-1.2376 0.41425-1.2312-0.093653-1.2248-0.39624-2.3411-0.8249-1.0845 0.36382-1.6968-0.6592-1.0653 1.1203-0.64429 0.09725-1.4481-0.09725-0.41464-0.25215-1.0398-0.57635-0.57413-0.44667 0.54861 0.1441-0.5805-0.24495-0.07656 0.018068-0.13398 0.057635z"/>
</svg>
