<svg width="16" height="64" preserveAspectRatio="none" version="1.1" viewBox="0 0 32 32" xmlns="http://www.w3.org/2000/svg">
    <path d="m3.6898 2.4421e-6 4.6287 2.7329 2.5982 2.2813-2.5764 2.2305 3.0286 2.4985 0.99809 1.8843-3.8324 1.5898-0.76531 1.7207 2.1444 3.0088-1.1195 2.0815-7.7941 1.7283 2.6999 0.62523 5.1847 1.9536 0.11973 0.2124-3.9371 0.03028 3.8064 2.6113-0.35167 2.8145-4.8322 1.9961h19.736l-1.6679-1.457 6.166-2.082-1.1831-2.7729-4.1029-0.96533 0.72093-0.37354-1.9602-1.8408 4.7258-1.9106-2.4927-2.7895-1.2635-2.2495-0.25873-1.834 1.1086-2.313 5.5966-1.709-1.1563-2.168 3.3412-0.56094-2.4837-1.3478-5.0122-2.4839-1.4929-2.1851 1.4151-0.95703z" fill="#f5f5dc"/>
</svg>
